# xmcd
#
# Track frame offsets:
#	150
#	13312
#	28010
#	41642
#	59560
#	72440
#	90170
#	101927
#	117695
#	129200
#	148217
#	159467
#	177275
#	189500
#
# Disc length: 2731 seconds
# Revision: 5
# Processed by: cddbd v1.5.2PL0 Copyright (c) Steve Scherf et al.
# Submitted via: dBpowerAMP V12.0
#
DISCID=cc0aa90e
DTITLE=Dixie Chicks - Little Ol' Cowgirl
DYEAR=1992
DGENRE=Country*
TTITLE0=Little Ol' Cowgirl
TTITLE1=A Road Is Just A Road
TTITLE2=She'll Find Better Things To Do
TTITLE3=Irish Medley
TTITLE4=You Send Me
TTITLE5=Just A Bit Like Me
TTITLE6=A Heart That Can
TTITLE7=Past The Point Of Rescue
TTITLE8=Beatin' Around The Bush
TTITLE9=Two Of A Kind
TTITLE10=Standin' By The Bedside
TTITLE11=Aunt Mattie's Quilt
TTITLE12=Hallelujah, I Just Love Him So
TTITLE13=Pink Toenails
EXTD=
EXTT0=
EXTT1=
EXTT2=
EXTT3=
EXTT4=
EXTT5=
EXTT6=
EXTT7=
EXTT8=
EXTT9=
EXTT10=
EXTT11=
EXTT12=
EXTT13=
PLAYORDER=
